/* XPM */
static char *result[] = {
/* columns rows colors chars-per-pixel */
"16 16 3 1 ",
"  c #464646",
". c #22B14C",
"X c #B4B4B4",
/* pixels */
"X              X",
"  XXXXXXXXXXXX  ",
" XXXXXXXXXXXXXX ",
" XXXXXX..XXXXXX ",
" XXXXXX..XXXXXX ",
" XXXX....XXXXXX ",
" XXXX....XXXXXX ",
" XXXXXX..XXXXXX ",
" XXXXXX..XXXXXX ",
" XXXXXX..XXXXXX ",
" XXXXXX..XXXXXX ",
" XXXX......XXXX ",
" XXXX......XXXX ",
" XXXXXXXXXXXXXX ",
"  XXXXXXXXXXXX  ",
"X              X"
};
