/* XPM */
static char *__32[] = {
/* columns rows colors chars-per-pixel */
"32 32 3 1 ",
"  c #464646",
". c #22B14C",
"X c gray88",
/* pixels */
"XX                            XX",
"XX                            XX",
"    XXXXXXXXXXXXXXXXXXXXXXXX    ",
"    XXXXXXXXXXXXXXXXXXXXXXXX    ",
"  XXXXXXXXXXXXXXXXXXXXXXXXXXXX  ",
"  XXXXXXXXXXXXXXXXXXXXXXXXXXXX  ",
"  XXXXXXXXXXXX....XXXXXXXXXXXX  ",
"  XXXXXXXXXXXX....XXXXXXXXXXXX  ",
"  XXXXXXXXXXXX....XXXXXXXXXXXX  ",
"  XXXXXXXXXXXX....XXXXXXXXXXXX  ",
"  XXXXXXXX........XXXXXXXXXXXX  ",
"  XXXXXXXX........XXXXXXXXXXXX  ",
"  XXXXXXXX........XXXXXXXXXXXX  ",
"  XXXXXXXX........XXXXXXXXXXXX  ",
"  XXXXXXXXXXXX....XXXXXXXXXXXX  ",
"  XXXXXXXXXXXX....XXXXXXXXXXXX  ",
"  XXXXXXXXXXXX....XXXXXXXXXXXX  ",
"  XXXXXXXXXXXX....XXXXXXXXXXXX  ",
"  XXXXXXXXXXXX....XXXXXXXXXXXX  ",
"  XXXXXXXXXXXX....XXXXXXXXXXXX  ",
"  XXXXXXXXXXXX....XXXXXXXXXXXX  ",
"  XXXXXXXXXXXX....XXXXXXXXXXXX  ",
"  XXXXXXXX............XXXXXXXX  ",
"  XXXXXXXX............XXXXXXXX  ",
"  XXXXXXXX............XXXXXXXX  ",
"  XXXXXXXX............XXXXXXXX  ",
"  XXXXXXXXXXXXXXXXXXXXXXXXXXXX  ",
"  XXXXXXXXXXXXXXXXXXXXXXXXXXXX  ",
"    XXXXXXXXXXXXXXXXXXXXXXXX    ",
"    XXXXXXXXXXXXXXXXXXXXXXXX    ",
"XX                            XX",
"XX                            XX"
};
