/* XPM */
static char *result[] = {
/* columns rows colors chars-per-pixel */
"16 16 3 1 ",
"  c #464646",
". c #00B7EF",
"X c #E0E0E0",
/* pixels */
"X              X",
"  XXXXXXXXXXXX  ",
" XXXXXXXXXXXXXX ",
" XXXXX....XXXXX ",
" XXXXX....XXXXX ",
" XXX..XXXX..XXX ",
" XXX..XXXX..XXX ",
" XXXXXXX..XXXXX ",
" XXXXXXX..XXXXX ",
" XXXXX..XXXXXXX ",
" XXXXX..XXXXXXX ",
" XXX........XXX ",
" XXX........XXX ",
" XXXXXXXXXXXXXX ",
"  XXXXXXXXXXXX  ",
"X              X"
};
