/* XPM */
static char *__32[] = {
/* columns rows colors chars-per-pixel */
"32 32 3 1 ",
"  c #464646",
". c #4D6DF3",
"X c gray88",
/* pixels */
"XX                            XX",
"XX                            XX",
"    XXXXXXXXXXXXXXXXXXXXXXXX    ",
"    XXXXXXXXXXXXXXXXXXXXXXXX    ",
"  XXXXXXXXXXXXXXXXXXXXXXXXXXXX  ",
"  XXXXXXXXXXXXXXXXXXXXXXXXXXXX  ",
"  XXXXXXXXXX........XXXXXXXXXX  ",
"  XXXXXXXXXX........XXXXXXXXXX  ",
"  XXXXXXXXXX........XXXXXXXXXX  ",
"  XXXXXXXXXX........XXXXXXXXXX  ",
"  XXXXXX....XXXXXXXX....XXXXXX  ",
"  XXXXXX....XXXXXXXX....XXXXXX  ",
"  XXXXXX....XXXXXXXX....XXXXXX  ",
"  XXXXXX....XXXXXXXX....XXXXXX  ",
"  XXXXXXXXXXXXXX....XXXXXXXXXX  ",
"  XXXXXXXXXXXXXX....XXXXXXXXXX  ",
"  XXXXXXXXXXXXXX....XXXXXXXXXX  ",
"  XXXXXXXXXXXXXX....XXXXXXXXXX  ",
"  XXXXXX....XXXXXXXX....XXXXXX  ",
"  XXXXXX....XXXXXXXX....XXXXXX  ",
"  XXXXXX....XXXXXXXX....XXXXXX  ",
"  XXXXXX....XXXXXXXX....XXXXXX  ",
"  XXXXXXXXXX........XXXXXXXXXX  ",
"  XXXXXXXXXX........XXXXXXXXXX  ",
"  XXXXXXXXXX........XXXXXXXXXX  ",
"  XXXXXXXXXX........XXXXXXXXXX  ",
"  XXXXXXXXXXXXXXXXXXXXXXXXXXXX  ",
"  XXXXXXXXXXXXXXXXXXXXXXXXXXXX  ",
"    XXXXXXXXXXXXXXXXXXXXXXXX    ",
"    XXXXXXXXXXXXXXXXXXXXXXXX    ",
"XX                            XX",
"XX                            XX"
};
