/* XPM */
static char *result[] = {
/* columns rows colors chars-per-pixel */
"16 16 3 1 ",
"  c #464646",
". c #2F3699",
"X c #B4B4B4",
/* pixels */
"X              X",
"  XXXXXXXXXXXX  ",
" XXXXXXXXXXXXXX ",
" XXXXXXX..XXXXX ",
" XXXXXXX..XXXXX ",
" XXXXX....XXXXX ",
" XXXXX....XXXXX ",
" XXX..XX..XXXXX ",
" XXX..XX..XXXXX ",
" XXX........XXX ",
" XXX........XXX ",
" XXXXXXX..XXXXX ",
" XXXXXXX..XXXXX ",
" XXXXXXXXXXXXXX ",
"  XXXXXXXXXXXX  ",
"X              X"
};
