/* XPM */
static char *__32[] = {
/* columns rows colors chars-per-pixel */
"32 32 3 1 ",
"  c #464646",
". c #2F3699",
"X c gray88",
/* pixels */
"XX                            XX",
"XX                            XX",
"    XXXXXXXXXXXXXXXXXXXXXXXX    ",
"    XXXXXXXXXXXXXXXXXXXXXXXX    ",
"  XXXXXXXXXXXXXXXXXXXXXXXXXXXX  ",
"  XXXXXXXXXXXXXXXXXXXXXXXXXXXX  ",
"  XXXXXXXXXXXXXX....XXXXXXXXXX  ",
"  XXXXXXXXXXXXXX....XXXXXXXXXX  ",
"  XXXXXXXXXXXXXX....XXXXXXXXXX  ",
"  XXXXXXXXXXXXXX....XXXXXXXXXX  ",
"  XXXXXXXXXX........XXXXXXXXXX  ",
"  XXXXXXXXXX........XXXXXXXXXX  ",
"  XXXXXXXXXX........XXXXXXXXXX  ",
"  XXXXXXXXXX........XXXXXXXXXX  ",
"  XXXXXX....XXXX....XXXXXXXXXX  ",
"  XXXXXX....XXXX....XXXXXXXXXX  ",
"  XXXXXX....XXXX....XXXXXXXXXX  ",
"  XXXXXX....XXXX....XXXXXXXXXX  ",
"  XXXXXX................XXXXXX  ",
"  XXXXXX................XXXXXX  ",
"  XXXXXX................XXXXXX  ",
"  XXXXXX................XXXXXX  ",
"  XXXXXXXXXXXXXX....XXXXXXXXXX  ",
"  XXXXXXXXXXXXXX....XXXXXXXXXX  ",
"  XXXXXXXXXXXXXX....XXXXXXXXXX  ",
"  XXXXXXXXXXXXXX....XXXXXXXXXX  ",
"  XXXXXXXXXXXXXXXXXXXXXXXXXXXX  ",
"  XXXXXXXXXXXXXXXXXXXXXXXXXXXX  ",
"    XXXXXXXXXXXXXXXXXXXXXXXX    ",
"    XXXXXXXXXXXXXXXXXXXXXXXX    ",
"XX                            XX",
"XX                            XX"
};
