/* XPM */
static char *__32[] = {
/* columns rows colors chars-per-pixel */
"32 32 3 1 ",
"  c #464646",
". c #FFF200",
"X c gray88",
/* pixels */
"XX                            XX",
"XX                            XX",
"    XXXXXXXXXXXXXXXXXXXXXXXX    ",
"    XXXXXXXXXXXXXXXXXXXXXXXX    ",
"  XXXXXXXXXXXXXXXXXXXXXXXXXXXX  ",
"  XXXXXXXXXXXXXXXXXXXXXXXXXXXX  ",
"  XXXXXX................XXXXXX  ",
"  XXXXXX................XXXXXX  ",
"  XXXXXX................XXXXXX  ",
"  XXXXXX................XXXXXX  ",
"  XXXXXX....XXXXXXXXXXXXXXXXXX  ",
"  XXXXXX....XXXXXXXXXXXXXXXXXX  ",
"  XXXXXX....XXXXXXXXXXXXXXXXXX  ",
"  XXXXXX....XXXXXXXXXXXXXXXXXX  ",
"  XXXXXX............XXXXXXXXXX  ",
"  XXXXXX............XXXXXXXXXX  ",
"  XXXXXX............XXXXXXXXXX  ",
"  XXXXXX............XXXXXXXXXX  ",
"  XXXXXXXXXXXXXXXXXX....XXXXXX  ",
"  XXXXXXXXXXXXXXXXXX....XXXXXX  ",
"  XXXXXXXXXXXXXXXXXX....XXXXXX  ",
"  XXXXXXXXXXXXXXXXXX....XXXXXX  ",
"  XXXXXX............XXXXXXXXXX  ",
"  XXXXXX............XXXXXXXXXX  ",
"  XXXXXX............XXXXXXXXXX  ",
"  XXXXXX............XXXXXXXXXX  ",
"  XXXXXXXXXXXXXXXXXXXXXXXXXXXX  ",
"  XXXXXXXXXXXXXXXXXXXXXXXXXXXX  ",
"    XXXXXXXXXXXXXXXXXXXXXXXX    ",
"    XXXXXXXXXXXXXXXXXXXXXXXX    ",
"XX                            XX",
"XX                            XX"
};
