/* XPM */
static char *result[] = {
/* columns rows colors chars-per-pixel */
"16 16 3 1 ",
"  c #464646",
". c #FFC20E",
"X c #E0E0E0",
/* pixels */
"X              X",
"  XXXXXXXXXXXX  ",
" XXXXXXXXXXXXXX ",
" XX......XXXXXX ",
" XX......XXXXXX ",
" XXXXXXXX..XXXX ",
" XXXXXXXX..XXXX ",
" XXXXXXXX..XXXX ",
" XXXXXXXX..XXXX ",
" XXXXXX..XXXXXX ",
" XXXXXX..XXXXXX ",
" XXXXXX..XXXXXX ",
" XXXXXX..XXXXXX ",
" XXXXXXXXXXXXXX ",
"  XXXXXXXXXXXX  ",
"X              X"
};
