/* XPM */
static char *__32[] = {
/* columns rows colors chars-per-pixel */
"32 32 3 1 ",
"  c #464646",
". c #FFC20E",
"X c gray88",
/* pixels */
"XX                            XX",
"XX                            XX",
"    XXXXXXXXXXXXXXXXXXXXXXXX    ",
"    XXXXXXXXXXXXXXXXXXXXXXXX    ",
"  XXXXXXXXXXXXXXXXXXXXXXXXXXXX  ",
"  XXXXXXXXXXXXXXXXXXXXXXXXXXXX  ",
"  XXXX............XXXXXXXXXXXX  ",
"  XXXX............XXXXXXXXXXXX  ",
"  XXXX............XXXXXXXXXXXX  ",
"  XXXX............XXXXXXXXXXXX  ",
"  XXXXXXXXXXXXXXXX....XXXXXXXX  ",
"  XXXXXXXXXXXXXXXX....XXXXXXXX  ",
"  XXXXXXXXXXXXXXXX....XXXXXXXX  ",
"  XXXXXXXXXXXXXXXX....XXXXXXXX  ",
"  XXXXXXXXXXXXXXXX....XXXXXXXX  ",
"  XXXXXXXXXXXXXXXX....XXXXXXXX  ",
"  XXXXXXXXXXXXXXXX....XXXXXXXX  ",
"  XXXXXXXXXXXXXXXX....XXXXXXXX  ",
"  XXXXXXXXXXXX....XXXXXXXXXXXX  ",
"  XXXXXXXXXXXX....XXXXXXXXXXXX  ",
"  XXXXXXXXXXXX....XXXXXXXXXXXX  ",
"  XXXXXXXXXXXX....XXXXXXXXXXXX  ",
"  XXXXXXXXXXXX....XXXXXXXXXXXX  ",
"  XXXXXXXXXXXX....XXXXXXXXXXXX  ",
"  XXXXXXXXXXXX....XXXXXXXXXXXX  ",
"  XXXXXXXXXXXX....XXXXXXXXXXXX  ",
"  XXXXXXXXXXXXXXXXXXXXXXXXXXXX  ",
"  XXXXXXXXXXXXXXXXXXXXXXXXXXXX  ",
"    XXXXXXXXXXXXXXXXXXXXXXXX    ",
"    XXXXXXXXXXXXXXXXXXXXXXXX    ",
"XX                            XX",
"XX                            XX"
};
