/* XPM */
static char *bomb_32[] = {
/* columns rows colors chars-per-pixel */
"32 32 4 1 ",
"  c black",
". c #FFC20E",
"X c #B4B4B4",
"o c gray88",
/* pixels */
"oooooooooooooooooo....oooooooooo",
"oooooooooooooooooo....oooooooooo",
"oooooooooooooooo  ....oooooooooo",
"oooooooooooooooo  ....oooooooooo",
"oooooooooooooo      oooooooooooo",
"oooooooooooooo      oooooooooooo",
"oooooooooo          oooooooooooo",
"oooooooooo          oooooooooooo",
"oooooo  XX            XXoooooooo",
"oooooo  XX            XXoooooooo",
"oooo    XXXX      XXXXXX  oooooo",
"oooo    XXXX      XXXXXX  oooooo",
"oooo      XXXXXXXXXX      oooooo",
"oooo      XXXXXXXXXX      oooooo",
"oo                          oooo",
"oo                          oooo",
"oo                          oooo",
"oo                          oooo",
"oo                          oooo",
"oo                          oooo",
"oooo                      oooooo",
"oooo                      oooooo",
"oooo                      oooooo",
"oooo                      oooooo",
"oooooo                  oooooooo",
"oooooo                  oooooooo",
"oooooooooo          oooooooooooo",
"oooooooooo          oooooooooooo",
"oooooooooooooooooooooooooooooooo",
"oooooooooooooooooooooooooooooooo",
"oooooooooooooooooooooooooooooooo",
"oooooooooooooooooooooooooooooooo"
};
