/* XPM */
static char *cell_32[] = {
/* columns rows colors chars-per-pixel */
"32 32 2 1 ",
"  c #464646",
". c #B4B4B4",
/* pixels */
"..                            ..",
"..                            ..",
"  ............................  ",
"  ............................  ",
"  ............................  ",
"  ............................  ",
"  ............................  ",
"  ............................  ",
"  ............................  ",
"  ............................  ",
"  ............................  ",
"  ............................  ",
"  ............................  ",
"  ............................  ",
"  ............................  ",
"  ............................  ",
"  ............................  ",
"  ............................  ",
"  ............................  ",
"  ............................  ",
"  ............................  ",
"  ............................  ",
"  ............................  ",
"  ............................  ",
"  ............................  ",
"  ............................  ",
"  ............................  ",
"  ............................  ",
"  ............................  ",
"  ............................  ",
"..                            ..",
"..                            .."
};
