/* XPM */
static char *flag_32[] = {
/* columns rows colors chars-per-pixel */
"32 32 3 1 ",
"  c #ED1C24",
". c #9C5A3C",
"X c gray88",
/* pixels */
"XXXXXXXXXXXXXXXXXXXXXXXXXXXXXXXX",
"XXXXXXXXXXXXXXXXXXXXXXXXXXXXXXXX",
"XXXXXXXXXXXXXXXXXXXXXXXXXXXXXXXX",
"XXXXXXXXXXXXXXXXXXXXXXXXXXXXXXXX",
"XXXXXXXXXX..XXXXXXXXXXXXXXXXXXXX",
"XXXXXXXXXX..XXXXXXXXXXXXXXXXXXXX",
"XXXXXXXX  ..      XXXXXXXXXXXXXX",
"XXXXXXXX  ..      XXXXXXXXXXXXXX",
"XXXXXX    ..            XXXXXXXX",
"XXXXXX    ..            XXXXXXXX",
"XXXXXX    ..                XXXX",
"XXXXXX    ..                XXXX",
"XXXXXX    ..                XXXX",
"XXXXXX    ..                XXXX",
"XXXXXX    ..              XXXXXX",
"XXXXXX    ..              XXXXXX",
"XXXXXX    ..        XXXXXXXXXXXX",
"XXXXXX    ..        XXXXXXXXXXXX",
"XXXXXXXX  ..XXXXXXXXXXXXXXXXXXXX",
"XXXXXXXX  ..XXXXXXXXXXXXXXXXXXXX",
"XXXXXXXXXX..XXXXXXXXXXXXXXXXXXXX",
"XXXXXXXXXX..XXXXXXXXXXXXXXXXXXXX",
"XXXXXXXXXX..XXXXXXXXXXXXXXXXXXXX",
"XXXXXXXXXX..XXXXXXXXXXXXXXXXXXXX",
"XXXXXXXXXX..XXXXXXXXXXXXXXXXXXXX",
"XXXXXXXXXX..XXXXXXXXXXXXXXXXXXXX",
"XXXXXXXXXX..XXXXXXXXXXXXXXXXXXXX",
"XXXXXXXXXX..XXXXXXXXXXXXXXXXXXXX",
"XXXXXXXXXX..XXXXXXXXXXXXXXXXXXXX",
"XXXXXXXXXX..XXXXXXXXXXXXXXXXXXXX",
"XXXXXXXXXXXXXXXXXXXXXXXXXXXXXXXX",
"XXXXXXXXXXXXXXXXXXXXXXXXXXXXXXXX"
};
