/* XPM */
static char *result[] = {
/* columns rows colors chars-per-pixel */
"16 16 3 1 ",
"  c #ED1C24",
". c #9C5A3C",
"X c #E0E0E0",
/* pixels */
"XXXXXXXXXXXXXXXX",
"XXXXXXXXXXXXXXXX",
"XXXXX.XXXXXXXXXX",
"XXXX .   XXXXXXX",
"XXX  .      XXXX",
"XXX  .        XX",
"XXX  .        XX",
"XXX  .       XXX",
"XXX  .    XXXXXX",
"XXXX .XXXXXXXXXX",
"XXXXX.XXXXXXXXXX",
"XXXXX.XXXXXXXXXX",
"XXXXX.XXXXXXXXXX",
"XXXXX.XXXXXXXXXX",
"XXXXX.XXXXXXXXXX",
"XXXXXXXXXXXXXXXX"
};
